<?xml version="1.0" encoding="UTF-8" standalone="no"?>
<!-- Created with Inkscape (http://www.inkscape.org/) -->

<svg
   xmlns:dc="http://purl.org/dc/elements/1.1/"
   xmlns:cc="http://creativecommons.org/ns#"
   xmlns:rdf="http://www.w3.org/1999/02/22-rdf-syntax-ns#"
   xmlns:svg="http://www.w3.org/2000/svg"
   xmlns="http://www.w3.org/2000/svg"
   xmlns:sodipodi="http://sodipodi.sourceforge.net/DTD/sodipodi-0.dtd"
   xmlns:inkscape="http://www.inkscape.org/namespaces/inkscape"
   id="svg3336"
   version="1.1"
   inkscape:version="0.91 r13725"
   xml:space="preserve"
   width="765"
   height="765"
   viewBox="0 0 765 765"
   sodipodi:docname="wsgc-gradient-logo-2015.svg"
   inkscape:export-filename="C:\Users\Grant\Projects\Pioneer-Rocketry-Site\SimpleSite\img\wsgc-gradient-logo-2015.png"
   inkscape:export-xdpi="90"
   inkscape:export-ydpi="90"><metadata
     id="metadata3342"><rdf:RDF><cc:Work
         rdf:about=""><dc:format>image/svg+xml</dc:format><dc:type
           rdf:resource="http://purl.org/dc/dcmitype/StillImage" /><dc:title></dc:title></cc:Work></rdf:RDF></metadata><defs
     id="defs3340"><clipPath
       clipPathUnits="userSpaceOnUse"
       id="clipPath3350"><path
         d="M 0,612 792,612 792,0 0,0 0,612 Z"
         id="path3352"
         inkscape:connector-curvature="0" /></clipPath><linearGradient
       x1="0"
       y1="0"
       x2="1"
       y2="0"
       gradientUnits="userSpaceOnUse"
       gradientTransform="matrix(146.61664,0,0,-146.61664,304.23291,383.69629)"
       spreadMethod="pad"
       id="linearGradient3418"><stop
         style="stop-opacity:1;stop-color:#373334"
         offset="0"
         id="stop3420" /><stop
         style="stop-opacity:1;stop-color:#4d4a4a"
         offset="0.285714"
         id="stop3422" /><stop
         style="stop-opacity:1;stop-color:#545152"
         offset="0.352041"
         id="stop3424" /><stop
         style="stop-opacity:1;stop-color:#797777"
         offset="0.529477"
         id="stop3426" /><stop
         style="stop-opacity:1;stop-color:#e7e6e6"
         offset="0.887675"
         id="stop3428" /><stop
         style="stop-opacity:1;stop-color:#e7e6e6"
         offset="1"
         id="stop3430" /></linearGradient><clipPath
       clipPathUnits="userSpaceOnUse"
       id="clipPath3438"><path
         d="M 0,612 792,612 792,0 0,0 0,612 Z"
         id="path3440"
         inkscape:connector-curvature="0" /></clipPath><linearGradient
       x1="0"
       y1="0"
       x2="1"
       y2="0"
       gradientUnits="userSpaceOnUse"
       gradientTransform="matrix(146.61264,0,0,-146.61264,304.23584,366.43555)"
       spreadMethod="pad"
       id="linearGradient3458"><stop
         style="stop-opacity:1;stop-color:#373334"
         offset="0"
         id="stop3460" /><stop
         style="stop-opacity:1;stop-color:#4d4a4a"
         offset="0.285714"
         id="stop3462" /><stop
         style="stop-opacity:1;stop-color:#545152"
         offset="0.352041"
         id="stop3464" /><stop
         style="stop-opacity:1;stop-color:#797777"
         offset="0.586735"
         id="stop3466" /><stop
         style="stop-opacity:1;stop-color:#e7e6e6"
         offset="1"
         id="stop3468" /></linearGradient><clipPath
       clipPathUnits="userSpaceOnUse"
       id="clipPath3476"><path
         d="M 0,612 792,612 792,0 0,0 0,612 Z"
         id="path3478"
         inkscape:connector-curvature="0" /></clipPath></defs><sodipodi:namedview
     pagecolor="#00ffff"
     bordercolor="#666666"
     borderopacity="1"
     objecttolerance="10"
     gridtolerance="10"
     guidetolerance="10"
     inkscape:pageopacity="0"
     inkscape:pageshadow="2"
     inkscape:window-width="1920"
     inkscape:window-height="1017"
     id="namedview3338"
     showgrid="false"
     inkscape:zoom="0.78382556"
     inkscape:cx="155.63321"
     inkscape:cy="359.86727"
     inkscape:window-x="1912"
     inkscape:window-y="-8"
     inkscape:window-maximized="1"
     inkscape:current-layer="g3344" /><g
     id="g3344"
     inkscape:groupmode="layer"
     inkscape:label="wsgc-gradient-logo-2015pdf"
     transform="matrix(1.25,0,0,-1.25,0,765)"><g
       id="g3346"
       transform="matrix(2.3997411,0,0,2.3997411,-659.6515,-555.04827)"><g
         id="g3348"
         clip-path="url(#clipPath3350)"><g
           id="g3354"
           transform="translate(496.6152,255.123)"><path
             d="m 0,0 24.166,-0.09 0,-11.578 -24.334,0 c 0,0 -22.332,-1.666 -22.332,27.75 C -22.5,45.5 0,44.168 0,44.168 l 24.166,0 0,-12.002 -23.584,0 c 0,0 -11.25,1.584 -11.25,-16.416 C -10.668,-2.25 0,0 0,0 m -36.245,49.305 c -4.761,0 -8.948,0.037 -12.446,0.109 l -1.348,0.029 0.012,0.037 C -69.194,49.031 -72.337,35.5 -72.337,35.5 l -0.081,13.064 c 0,0 -31.333,-0.103 -37.918,-0.064 -10.582,0.064 -13.167,-8.832 -13.167,-8.832 l 0.069,8.75 -15.235,0 c 0,0 -0.031,5.002 -0.846,9.125 -0.831,4.2 -5.402,7.772 -6.158,8.446 -0.757,0.67 -5.062,3.045 -6.912,4.428 -1.85,1.386 -6.416,3.5 -7.047,8.576 -0.631,5.072 -4.847,8.377 -7.286,9.424 -2.439,1.048 -3,-0.834 -5.453,2.277 -1.221,1.551 -1.326,4.426 -2.797,5.306 -1.473,0.881 -5.167,1.333 -5.167,1.333 -1.808,0.462 -9.777,6.237 -9.987,10.892 -0.507,11.198 2.901,26.004 2.901,26.004 0.575,1.726 2.341,4.927 2.832,8.057 0.546,3.481 -7.793,7.409 -7.793,9.131 0,7.098 17.195,19.467 18.667,20.306 1.47,0.839 4.078,0.881 5.591,3.271 1.514,2.391 0.672,9.269 0.967,16.064 0.294,6.795 5.947,21.088 8.385,19.213 2.279,-1.754 1.92,-4.123 6.25,-4.5 4.33,-0.378 15.088,4.412 15.088,4.412 7.301,1.832 12.88,5.783 17.91,6.963 14.127,3.312 23.157,8.627 21.377,4.125 -3.313,-8.375 -12.125,-15.75 -13.813,-15.75 -1.013,0 -2.875,-0.5 -2.375,-1.25 0.789,-1.184 -1.562,-5.438 -1.562,-5.438 0,0 -0.034,-0.513 1.312,1.5 2.343,3.504 4.959,1.75 4.959,1.75 1.218,0 3.262,-2.96 4.666,-3.187 10.407,-1.676 14.437,-11.492 14.437,-11.492 1.445,-3.356 3.339,-3.746 4.029,-4.121 4.111,-2.236 23.586,-5.782 28.097,-7.825 0.553,-0.25 1.562,-0.375 2.125,-1.062 0.538,-0.658 0.488,-1.066 0.26,-1.344 3.131,-0.523 4.328,-2.068 5.379,-3.435 1.216,-1.582 2.205,-2.826 6.326,-2.659 0.828,0.034 1.641,0.049 2.444,0.049 11.586,0 20.886,-3.216 21.988,-6.103 0.285,-0.748 0.091,-1.521 -0.52,-2.066 -0.952,-0.85 -1.24,-1.354 -1.328,-1.567 l 0.058,-0.275 c 0.061,-0.299 0.748,-1.926 8.218,-4.641 4.523,-1.644 4.299,-6.48 3.547,-8.809 0.002,0 -1.012,-3.666 -2.624,-8.686 -0.505,-1.573 -0.244,-2.11 -0.151,-2.235 0.164,-0.226 0.554,-0.273 0.851,-0.273 0.513,0 0.984,0.142 0.988,0.144 l 0.117,0.029 6.272,0.588 -0.832,-1.457 c -0.028,-0.037 -2.002,-3.531 -2.698,-4.582 -0.589,-0.891 -1.673,-3.158 0.987,-5.002 2.672,-1.853 3.23,-3.605 3.227,-4.748 -0.003,-1.165 -0.585,-2.26 -1.557,-2.928 -0.567,-0.389 -1.295,-0.381 -2.271,-0.359 -0.21,0.004 -0.43,0.009 -0.657,0.009 -1.694,0 -2.856,-0.332 -3.404,-1.986 -1.428,-4.303 -0.563,-5.469 -0.097,-6.096 0.208,-0.281 0.444,-0.599 0.491,-1.043 0.037,-0.356 0,-0.443 -0.976,-2.658 -2.735,-6.205 -4.132,-10.01 -4.164,-11.331 1.441,0.031 2.368,1.048 2.377,1.058 1.558,1.561 5.636,5.711 6.345,6.741 0.102,0.225 0.086,1.202 0.074,1.85 -0.029,1.813 -0.064,3.87 1.185,4.981 0.747,0.666 2.182,0.947 4.455,1.329 1.259,0.212 3.365,0.566 3.736,0.952 0.323,0.533 0.825,0.606 1.066,0.641 0.169,0.023 0.424,0.06 1.052,0.631 0.636,0.58 0.677,1.185 0.725,1.886 0.029,0.423 0.059,0.86 0.227,1.284 4.215,10.623 12.932,17.736 13.302,18.034 l 4.412,3.557 -2.928,-4.852 C -6.773,85.258 -0.581,74.319 -0.516,74.213 L -0.04,73.45 -0.736,72.876 C -12.084,64.01 -8.439,49.672 -8.401,49.529 l 0.251,-0.945 -0.94,-0.273 c -6.609,-1.913 -10.75,-8.366 -10.791,-8.43 l -1.846,-2.92 0,12.443 c -2.274,-0.031 -8.082,-0.099 -14.518,-0.099 M -47.5,-12.584 c -24.918,0.25 -24.418,21.916 -24.418,21.916 l -0.5,10.168 c 0,0 -0.211,24.998 23.936,25.082 l 22.898,-0.406 -0.25,-11.344 -22.584,0.084 c 0,0 -12.582,1.158 -12.582,-16.67 0,-17.83 12.582,-16.664 12.582,-16.664 l 3.25,-0.016 c 0,0 9.75,-0.484 8.854,9.516 l -9.52,0 0,11.418 c 11.584,0.084 14.416,1 18,-2.668 3.402,-3.482 3.25,-8.832 3.25,-8.832 0,0 2,-21.834 -22.916,-21.584 m -40.916,2.416 -31.833,0.5 0,11.334 30.333,0.25 c 0,0 2.832,0.5 2.916,4.25 0.084,3.75 -3.414,4.084 -3.414,4.084 l -16.168,0 c 0,0 -16.251,0.5 -16.584,17.416 -0.333,16.916 16.25,16.5 16.25,16.5 l 30.334,0 0,-11.416 -30.5,0 c 0,0 -4.25,-0.25 -4.25,-5.5 0,-5.25 4.25,-4.834 4.25,-4.834 l 18.416,-0.008 c 0,0 13.332,0.258 13.416,-16.326 0.084,-16.582 -13.166,-16.25 -13.166,-16.25 m -39.165,12.334 c 0,0 -0.749,-13.416 -11.917,-14.666 -11.166,-1.25 -15.578,9.182 -16,10.334 -2.951,8.057 -6.916,24.75 -10,32.832 -0.372,0.977 -1.083,2.918 -3.416,2.418 -2.295,-0.492 -2,-4.584 -2,-4.584 l -0.167,-27.75 c 0,0 0.417,-12.6 -12.083,-13 -11,-0.354 -14.084,11.666 -14.084,11.666 l -13,43.918 10.75,0 c 0,0 9.836,-31.277 14,-42.5 0.507,-1.365 0.584,-1.334 1.667,-1.334 0.75,0 0.917,1.334 0.917,1.334 0,0 0.012,26.426 0.416,31.582 0.215,2.742 3.559,11.303 12.084,12.168 10.666,1.082 15.463,-6.844 16.416,-9.918 C -153.421,32.807 -143.831,1 -143.831,1 c 0,0 0.501,-1.584 2.333,-1.5 1.834,0.084 2.167,2.334 2.167,2.334 l 0.583,41.832 11.167,-0.166 0,-41.334 z M -0.512,27.701 c 0.037,0 0.071,0 0.098,-0.002 l 28.666,-0.033 0,21.002 -28.563,0 c -0.119,0.004 -0.302,0.008 -0.543,0.008 -0.466,0 -1.568,-0.031 -3.055,-0.237 l -0.88,2.841 c -0.139,0.449 -3.299,11.09 5.982,18.34 l 3.342,2.611 -2.205,3.195 c -0.369,1.252 -2.801,12.693 20.168,50.765 0,0 7.375,11.187 5.078,13.365 -2.006,1.902 -12.328,-6.615 -12.328,-6.615 -0.17,-0.137 -5.019,-4.704 -7.5,-8.375 -1.646,-2.436 -6.227,-7.811 -9.176,-11.243 -0.446,-0.52 -1.496,-0.838 -0.884,-0.02 4.375,5.844 -2.999,11.209 -3.028,11.234 0.018,0.04 0.037,0.078 0.057,0.107 0.551,0.832 1.487,3.576 2.221,4.608 0,0 2.75,3.861 1.507,5.146 -1.763,1.822 -7.002,1.622 -7.002,1.622 1.022,3.298 1.664,5.585 1.793,6.054 1.25,4.009 0.754,10.722 -5.715,13.072 -2.22,0.807 -3.705,1.474 -4.683,1.979 0.769,1.362 0.912,3.005 0.332,4.527 -2.338,6.131 -16.387,8.356 -25.258,8.356 -0.85,0 -1.709,-0.016 -2.584,-0.05 -0.185,-0.007 -0.365,-0.011 -0.537,-0.011 -1.871,0 -1.986,0.148 -2.873,1.303 -0.916,1.191 -2.316,3.013 -5.096,4.091 -0.396,1.067 -1.291,2.238 -3.191,3.102 -2.297,1.043 -6.975,2.229 -14.403,4.06 -5.235,1.289 -13.144,3.239 -14.808,4.146 -0.189,0.102 -0.42,0.212 -0.691,0.332 -0.424,0.186 -0.79,0.347 -1.292,1.517 -0.199,0.484 -5.454,7.413 -15.875,12.521 -0.215,0.183 -1.694,1.951 -1.901,2.141 0,0 -1.348,2.612 -5.162,1.362 0.628,1.813 -0.192,1.258 1.162,1.5 2.619,0.468 17.086,15 15.277,17.75 -0.809,1.231 -6.819,0.604 -8.384,-0.048 -2.504,-1.042 -8.716,-1.211 -17.364,-2.891 -2.987,-0.579 -5.822,-1.927 -8.824,-3.353 -2.879,-1.369 -5.856,-2.783 -9.165,-3.615 l -0.37,-0.094 -0.349,-0.154 c -3.894,-1.717 -10.816,-4.259 -13.413,-4.259 l -0.004,0 c -2.172,0.19 -3.335,0.809 -3.715,1.098 -0.596,2.01 -2.369,3.379 -4.455,3.379 -3.476,0 -5.138,-3.113 -7.55,-10.089 -0.838,-2.422 -2.806,-8.543 -3.001,-13.051 -0.101,-2.353 -0.073,-4.713 -0.049,-6.797 0.03,-2.522 0.07,-5.948 -0.277,-7.032 -0.189,-0.21 -0.589,-0.368 -1.524,-0.678 -0.729,-0.241 -1.555,-0.515 -2.387,-0.989 -2.87,-1.641 -17.354,-10.42 -20.607,-22.254 -0.802,-2.92 1.126,-4.604 3.167,-6.387 0.923,-0.807 3.586,-3.132 4.341,-4.387 -0.327,-1.455 -1.022,-3.068 -1.594,-4.394 -0.371,-0.86 -0.691,-1.602 -0.927,-2.313 l -0.116,-0.414 c -0.144,-0.625 -3.508,-15.44 -2.985,-27.043 0.341,-7.554 10.571,-13.533 13.171,-14.199 l 0.467,-0.117 0.475,-0.02 c 0.709,-0.029 1.58,-0.136 2.19,-0.259 0.146,-0.373 0.307,-0.834 0.43,-1.188 0.506,-1.451 1.028,-2.949 2.013,-4.208 2.005,-2.558 4.584,-2.572 5.685,-2.58 0.542,-0.002 0.635,-0.01 0.868,-0.109 1.323,-0.571 4.765,-3.629 5.148,-6.713 0.772,-6.235 5.453,-9.053 7.968,-10.565 0.37,-0.224 0.791,-0.476 0.964,-0.607 0.843,-0.631 2.144,-1.545 3.399,-2.426 1.058,-0.74 2.656,-1.861 2.975,-2.127 2.319,-2.066 4.179,-5.346 4.297,-7.951 l -0.033,-6.706 -0.451,-32.298 c -2.682,8.89 -5.741,19.021 -6.064,20.064 -1.414,4.561 -7.156,13.186 -18.765,13.186 -0.787,0 -1.596,-0.041 -2.405,-0.123 -10.57,-1.073 -15.711,-11.141 -16.115,-16.293 -0.16,-2.045 -0.261,-7.141 -0.324,-12.68 -3.909,11.922 -7.835,24.398 -7.897,24.596 l -0.99,3.15 -20.078,0 14.693,-49.637 c 0.188,-0.693 1.15,-3.937 3.489,-7.226 3.721,-5.231 8.899,-7.901 15.07,-7.719 4.838,0.154 8.918,1.863 11.8,4.939 4.575,4.883 4.663,11.442 4.64,12.6 l 0.109,18.166 c 0.634,-2.182 1.276,-4.461 1.91,-6.713 1.731,-6.139 3.365,-11.937 4.839,-15.957 1.821,-4.975 7.745,-13.392 18.402,-13.391 0.761,0 1.544,0.043 2.324,0.131 7.866,0.881 12.157,6.315 14.248,11.606 l 0,-8.731 36.221,-0.57 0.17,-0.002 c 1.177,0 7.292,0.246 12.093,5.072 1.514,1.52 2.7,3.319 3.593,5.356 0.935,-1.613 2.089,-3.223 3.55,-4.733 5.117,-5.289 12.377,-8.017 21.576,-8.109 l 0.469,-0.002 c 9.047,0 16.051,2.648 20.814,7.869 1.637,1.793 2.847,3.733 3.741,5.656 2.056,-3.617 4.539,-6.099 6.83,-7.779 5.964,-4.373 12.392,-4.846 14.878,-4.846 0.348,0 0.612,0.01 0.778,0.018 l 28.701,0 0,20.561 L -0.396,4.5 -0.75,4.566 -1.281,4.42 C -1.334,4.414 -1.416,4.41 -1.523,4.41 c -3.166,0 -5.057,4.238 -5.057,11.34 0,7.596 2.211,11.951 6.068,11.951"
             style="fill:#ffffff;fill-opacity:1;fill-rule:nonzero;stroke:none"
             id="path3356"
             inkscape:connector-curvature="0" /></g><g
           id="g3358"
           transform="translate(492.3633,365.189)"><path
             d="M 0,0 C 0.062,0.068 0.114,0.133 0.175,0.201 -0.227,-0.252 -0.328,-0.364 0,0"
             style="fill:#ffffff;fill-opacity:1;fill-rule:nonzero;stroke:none"
             id="path3360"
             inkscape:connector-curvature="0" /></g><g
           id="g3362"
           transform="translate(357.2842,256.957)"><path
             d="m 0,0 c 0,0 -0.333,-2.25 -2.167,-2.334 -1.832,-0.084 -2.333,1.5 -2.333,1.5 0,0 -9.59,31.807 -10.167,33.666 -0.953,3.074 -5.75,11 -16.416,9.918 C -39.608,41.885 -42.952,33.324 -43.167,30.582 -43.571,25.426 -43.583,-1 -43.583,-1 c 0,0 -0.167,-1.334 -0.917,-1.334 -1.083,0 -1.16,-0.031 -1.667,1.334 -4.164,11.223 -14,42.5 -14,42.5 l -10.75,0 13,-43.918 c 0,0 3.084,-12.02 14.084,-11.666 12.5,0.4 12.083,13 12.083,13 l 0.167,27.75 c 0,0 -0.295,4.092 2,4.584 2.333,0.5 3.044,-1.441 3.416,-2.418 3.084,-8.082 7.049,-24.775 10,-32.832 0.422,-1.152 4.834,-11.584 16,-10.334 11.168,1.25 11.917,14.666 11.917,14.666 l 0,41.334 L 0.583,41.832 0,0 Z"
             style="fill:#231f20;fill-opacity:1;fill-rule:nonzero;stroke:none"
             id="path3364"
             inkscape:connector-curvature="0" /></g><g
           id="g3366"
           transform="translate(357.2842,256.957)"><path
             d="m 0,0 c 0,0 -0.333,-2.25 -2.167,-2.334 -1.832,-0.084 -2.333,1.5 -2.333,1.5 0,0 -9.59,31.807 -10.167,33.666 -0.953,3.074 -5.75,11 -16.416,9.918 C -39.608,41.885 -42.952,33.324 -43.167,30.582 -43.571,25.426 -43.583,-1 -43.583,-1 c 0,0 -0.167,-1.334 -0.917,-1.334 -1.083,0 -1.16,-0.031 -1.667,1.334 -4.164,11.223 -14,42.5 -14,42.5 l -10.75,0 13,-43.918 c 0,0 3.084,-12.02 14.084,-11.666 12.5,0.4 12.083,13 12.083,13 l 0.167,27.75 c 0,0 -0.295,4.092 2,4.584 2.333,0.5 3.044,-1.441 3.416,-2.418 3.084,-8.082 7.049,-24.775 10,-32.832 0.422,-1.152 4.834,-11.584 16,-10.334 11.168,1.25 11.917,14.666 11.917,14.666 l 0,41.334 L 0.583,41.832 0,0 Z"
             style="fill:none;stroke:#231f20;stroke-width:1;stroke-linecap:butt;stroke-linejoin:miter;stroke-miterlimit:10;stroke-dasharray:none;stroke-opacity:1"
             id="path3368"
             inkscape:connector-curvature="0" /></g><g
           id="g3370"
           transform="translate(407.9492,277.5312)"><path
             d="m 0,0 -18.416,0.008 c 0,0 -4.25,-0.416 -4.25,4.834 0,5.25 4.25,5.5 4.25,5.5 l 30.5,0 0,11.416 -30.334,0 c 0,0 -16.583,0.416 -16.25,-16.5 0.333,-16.916 16.584,-17.416 16.584,-17.416 l 16.168,0 c 0,0 3.498,-0.334 3.414,-4.084 -0.084,-3.75 -2.916,-4.25 -2.916,-4.25 l -30.333,-0.25 0,-11.334 31.833,-0.5 c 0,0 13.25,-0.332 13.166,16.25 C 13.332,0.258 0,0 0,0"
             style="fill:#231f20;fill-opacity:1;fill-rule:nonzero;stroke:none"
             id="path3372"
             inkscape:connector-curvature="0" /></g><g
           id="g3374"
           transform="translate(407.9492,277.5312)"><path
             d="m 0,0 -18.416,0.008 c 0,0 -4.25,-0.416 -4.25,4.834 0,5.25 4.25,5.5 4.25,5.5 l 30.5,0 0,11.416 -30.334,0 c 0,0 -16.583,0.416 -16.25,-16.5 0.333,-16.916 16.584,-17.416 16.584,-17.416 l 16.168,0 c 0,0 3.498,-0.334 3.414,-4.084 -0.084,-3.75 -2.916,-4.25 -2.916,-4.25 l -30.333,-0.25 0,-11.334 31.833,-0.5 c 0,0 13.25,-0.332 13.166,16.25 C 13.332,0.258 0,0 0,0 Z"
             style="fill:none;stroke:#231f20;stroke-width:1;stroke-linecap:butt;stroke-linejoin:miter;stroke-miterlimit:10;stroke-dasharray:none;stroke-opacity:1"
             id="path3376"
             inkscape:connector-curvature="0" /></g><g
           id="g3378"
           transform="translate(497.1973,287.2891)"><path
             d="m 0,0 23.584,0 0,12.002 -24.166,0 c 0,0 -22.5,1.332 -22.5,-28.086 0,-29.416 22.332,-27.75 22.332,-27.75 l 24.334,0 0,11.578 -24.166,0.09 c 0,0 -10.668,-2.25 -10.668,15.75 C -11.25,1.584 0,0 0,0"
             style="fill:#231f20;fill-opacity:1;fill-rule:nonzero;stroke:none"
             id="path3380"
             inkscape:connector-curvature="0" /></g><g
           id="g3382"
           transform="translate(497.1973,287.2891)"><path
             d="m 0,0 23.584,0 0,12.002 -24.166,0 c 0,0 -22.5,1.332 -22.5,-28.086 0,-29.416 22.332,-27.75 22.332,-27.75 l 24.334,0 0,11.578 -24.166,0.09 c 0,0 -10.668,-2.25 -10.668,15.75 C -11.25,1.584 0,0 0,0 Z"
             style="fill:none;stroke:#231f20;stroke-width:1;stroke-linecap:butt;stroke-linejoin:miter;stroke-miterlimit:10;stroke-dasharray:none;stroke-opacity:1"
             id="path3384"
             inkscape:connector-curvature="0" /></g><g
           id="g3386"
           transform="translate(468.7812,272.9551)"><path
             d="m 0,0 c -3.584,3.668 -6.416,2.752 -18,2.668 l 0,-11.418 9.52,0 c 0.896,-10 -8.854,-9.516 -8.854,-9.516 l -3.25,0.016 c 0,0 -12.582,-1.166 -12.582,16.664 0,17.828 12.582,16.67 12.582,16.67 L 2,15 2.25,26.344 -20.648,26.75 C -44.795,26.666 -44.584,1.668 -44.584,1.668 l 0.5,-10.168 c 0,0 -0.5,-21.666 24.418,-21.916 24.916,-0.25 22.916,21.584 22.916,21.584 0,0 0.152,5.35 -3.25,8.832"
             style="fill:#231f20;fill-opacity:1;fill-rule:nonzero;stroke:none"
             id="path3388"
             inkscape:connector-curvature="0" /></g><g
           id="g3390"
           transform="translate(468.7812,272.9551)"><path
             d="m 0,0 c -3.584,3.668 -6.416,2.752 -18,2.668 l 0,-11.418 9.52,0 c 0.896,-10 -8.854,-9.516 -8.854,-9.516 l -3.25,0.016 c 0,0 -12.582,-1.166 -12.582,16.664 0,17.828 12.582,16.67 12.582,16.67 L 2,15 2.25,26.344 -20.648,26.75 C -44.795,26.666 -44.584,1.668 -44.584,1.668 l 0.5,-10.168 c 0,0 -0.5,-21.666 24.418,-21.916 24.916,-0.25 22.916,21.584 22.916,21.584 0,0 0.152,5.35 -3.25,8.832 z"
             style="fill:none;stroke:#231f20;stroke-width:1;stroke-linecap:butt;stroke-linejoin:miter;stroke-miterlimit:10;stroke-dasharray:none;stroke-opacity:1"
             id="path3392"
             inkscape:connector-curvature="0" /></g><g
           id="g3394"
           transform="translate(447.9453,305.5376)"><path
             d="M 0,0 C 0,0 3.441,10.529 3.221,14.082 3.045,16.873 -1.584,25.379 -1.584,25.379 -4.475,29.137 -18.695,38.287 -18.932,43 c -0.152,3.037 -18.29,17.26 -17.25,22.251 1.25,6 -1.177,16.619 2,20.75 12.5,16.25 16.063,27.104 26.585,35.67 6.333,-1 3.583,-6.458 11.999,-6.125 14.668,0.579 25.541,-4.293 23.207,-6.376 -2.332,-2.083 -1.584,-2.792 -1.584,-2.792 0.375,-1.813 4.381,-3.751 8.856,-5.377 4.812,-1.749 2.937,-7.563 2.937,-7.563 0,0 -1,-3.625 -2.625,-8.687 -1.625,-5.063 2.938,-3.625 2.938,-3.625 l 5.125,0.937 c 0,0 -2.684,-3.774 -3.397,-4.852 -0.537,-0.811 -2.207,-3.98 1.25,-6.376 3.973,-2.753 2.912,-5.179 1.674,-6.028 -1.049,-0.722 -5.402,1.107 -6.715,-2.847 -2.032,-6.124 0.266,-6.766 0.35,-7.559 0.041,-0.392 -6.934,-14.608 -4.684,-14.858 2.25,-0.25 3.668,1.375 3.668,1.375 0,0 5.5,5.5 6.416,6.832 0.702,1.02 -0.423,5.294 1.1,6.651 1.262,1.124 7.531,1.128 8.357,2.476 0.262,0.428 0.584,-0.166 1.959,1.084 1.375,1.25 0.864,2.671 1.209,3.54 4.166,10.501 13,17.625 13,17.625 C 40.068,33.75 47.318,23.25 47.318,23.25 35.318,13.875 39.302,-1.143 39.302,-1.143 32.252,-3.184 27.943,-10 27.943,-10 l 0,10.004 c 0,0 -16,-0.254 -27.943,-0.004 m 26.943,-13.454 1.846,2.92 c 0.041,0.065 4.182,6.518 10.791,8.43 l 0.94,0.273 -0.251,0.946 c -0.039,0.142 -3.683,14.481 7.665,23.347 l 0.696,0.573 -0.476,0.764 c -0.065,0.105 -6.258,11.045 20.146,54.81 l 2.928,4.853 -4.413,-3.558 C 66.446,79.606 57.729,72.493 53.514,61.87 53.346,61.446 53.198,59.28 52.562,58.7 51.934,58.13 43,55.813 42.253,55.147 c -1.249,-1.111 -1.214,-3.168 -1.185,-4.981 0.012,-0.647 0.028,-1.625 -0.074,-1.85 -0.709,-1.03 -4.787,-5.179 -6.346,-6.741 -0.008,-0.01 -0.935,-1.026 -2.377,-1.057 0.033,1.321 1.43,5.126 4.165,11.331 0.976,2.214 1.013,2.301 0.976,2.658 -0.047,0.443 -0.283,0.762 -0.491,1.043 -0.466,0.627 -1.331,1.793 0.097,6.096 0.548,1.654 1.71,1.986 3.404,1.986 0.226,0 0.447,-0.006 0.657,-0.01 0.976,-0.021 1.704,-0.029 2.271,0.359 0.972,0.668 1.554,1.763 1.557,2.928 0.003,1.144 -0.555,2.896 -3.227,4.748 -2.66,1.844 -1.576,4.112 -0.987,5.002 0.696,1.052 3.53,6.039 3.53,6.039 L 37.951,82.11 37.834,82.081 c -0.004,-0.002 -0.475,-0.143 -0.988,-0.143 -0.297,0 -0.687,0.046 -0.851,0.272 -0.093,0.126 -0.354,0.662 0.151,2.235 1.612,5.021 2.625,8.687 2.624,8.687 0.751,2.328 0.976,7.165 -3.547,8.808 -7.47,2.715 -8.157,4.342 -8.218,4.641 l -0.058,0.275 c 0.088,0.213 0.376,0.717 1.328,1.568 0.611,0.545 0.805,1.317 0.52,2.065 -1.102,2.887 -10.402,6.104 -21.988,6.104 -0.803,0 -1.616,-0.016 -2.444,-0.049 -4.121,-0.168 -5.11,1.076 -6.326,2.658 -1.051,1.367 -2.248,2.912 -5.379,3.436 -0.331,-0.403 -1.04,-0.522 -0.881,-0.703 -10.456,-8.596 -14.093,-19.483 -26.623,-35.733 -3.206,-4.158 -0.756,-14.848 -2.017,-20.887 -1.05,-5.025 17.252,-19.34 17.405,-22.399 0.238,-4.742 14.587,-13.953 17.504,-17.736 0,0 4.67,-8.563 4.848,-11.371 0.222,-3.577 -3.25,-14.176 -3.25,-14.176 l 0.106,-0.548 c -0.379,0.002 -0.74,-0.011 -1.107,-0.019 L -1.369,-0.971 -0.021,-1 c 3.498,-0.073 7.685,-0.11 12.446,-0.11 6.436,0 12.244,0.068 14.518,0.1 l 0,-12.444 z"
             style="fill:#231f20;fill-opacity:1;fill-rule:nonzero;stroke:none"
             id="path3396"
             inkscape:connector-curvature="0" /></g><g
           id="g3398"
           transform="translate(475.8887,295.5371)"><path
             d="m 0,0 c 0,0 4.309,6.816 11.358,8.857 0,0 -3.983,15.018 8.017,24.393 0,0 -7.25,10.5 20.125,55.876 0,0 -8.834,-7.124 -13,-17.625 -0.346,-0.869 0.166,-2.29 -1.209,-3.54 -1.375,-1.25 -1.697,-0.656 -1.959,-1.084 -0.826,-1.347 -7.096,-1.351 -8.357,-2.475 -1.524,-1.358 -0.399,-5.632 -1.1,-6.652 -0.916,-1.332 -6.416,-6.832 -6.416,-6.832 0,0 -1.418,-1.625 -3.668,-1.375 -2.25,0.25 4.725,14.466 4.684,14.859 -0.084,0.793 -2.382,1.434 -0.35,7.558 1.313,3.955 5.666,2.125 6.715,2.847 1.238,0.85 2.299,3.276 -1.674,6.028 -3.457,2.397 -1.787,5.566 -1.25,6.376 0.713,1.079 3.397,4.853 3.397,4.853 l -5.125,-0.938 c 0,0 -4.563,-1.437 -2.938,3.625 1.625,5.063 2.625,8.688 2.625,8.688 0,0 1.875,5.813 -2.938,7.562 -4.474,1.626 -8.48,3.565 -8.855,5.377 0,0 -0.748,0.709 1.584,2.792 2.334,2.083 -8.539,6.955 -23.207,6.376 -8.416,-0.333 -5.666,5.125 -11.999,6.125 -10.523,-8.565 -14.085,-19.42 -26.585,-35.67 -3.178,-4.13 -0.75,-14.75 -2,-20.75 -1.04,-4.991 17.098,-19.213 17.25,-22.251 0.236,-4.712 14.457,-13.863 17.348,-17.621 0,0 4.629,-8.505 4.804,-11.296 C -24.502,20.53 -27.943,10 -27.943,10 -16,9.75 0,10.004 0,10.004 L 0,0 Z"
             style="fill:#231f20;fill-opacity:1;fill-rule:nonzero;stroke:none"
             id="path3400"
             inkscape:connector-curvature="0" /></g><g
           id="g3402"
           transform="translate(450.168,319.5581)"><path
             d="m 0,0 c -0.131,2.086 -3.36,8.438 -4.646,10.809 -0.993,1.254 -3.457,3.273 -6.062,5.408 -6.6,5.409 -11.283,9.487 -11.444,12.713 -0.137,0.954 -3.593,4.459 -6.37,7.276 -6.785,6.881 -11.534,12.001 -10.861,15.229 0.471,2.258 0.389,5.366 0.311,8.37 -0.129,4.92 -0.262,10.008 1.875,12.785 4.92,6.396 8.457,11.965 11.576,16.879 4.853,7.642 8.687,13.679 15.17,18.957 l 0.347,0.283 0.44,-0.07 c 0.036,-0.006 0.064,-0.016 0.1,-0.022 0.227,0.278 0.277,0.686 -0.261,1.344 -0.563,0.687 -1.571,0.811 -2.125,1.062 -4.511,2.043 -23.986,5.589 -28.097,7.825 -0.689,0.375 -2.584,0.765 -4.029,4.121 0,0 -4.029,9.816 -14.437,11.492 -1.404,0.226 -3.448,3.187 -4.666,3.187 0,0 -2.616,1.754 -4.959,-1.75 -1.345,-2.013 -1.312,-1.5 -1.312,-1.5 0,0 2.351,4.254 1.562,5.438 -0.5,0.75 1.363,1.25 2.375,1.25 1.688,0 10.5,7.375 13.813,15.75 1.78,4.502 -7.25,-0.813 -21.377,-4.125 -5.029,-1.18 -10.609,-5.131 -17.91,-6.963 0,0 -10.758,-4.79 -15.088,-4.412 -4.33,0.377 -3.971,2.746 -6.25,4.5 -2.438,1.875 -8.091,-12.418 -8.385,-19.213 -0.294,-6.795 0.547,-13.673 -0.966,-16.064 -1.514,-2.39 -4.121,-2.432 -5.592,-3.271 -1.472,-0.839 -18.667,-13.208 -18.667,-20.307 0,-1.721 8.339,-5.649 7.793,-9.13 -0.49,-3.13 -2.256,-6.331 -2.832,-8.057 0,0 -3.407,-14.806 -2.901,-26.004 0.21,-4.655 8.179,-10.43 9.987,-10.893 0,0 3.695,-0.451 5.167,-1.332 1.471,-0.88 1.576,-3.755 2.798,-5.306 2.452,-3.112 3.013,-1.229 5.452,-2.278 2.439,-1.046 6.656,-4.351 7.286,-9.423 0.631,-5.077 5.198,-7.19 7.047,-8.577 1.85,-1.382 6.155,-3.757 6.912,-4.427 0.756,-0.674 6.684,-6.125 7.735,-10.276 1.052,-4.154 -0.731,-7.295 -0.731,-7.295 l 15.235,0 -0.069,-8.75 c 0,0 2.585,8.896 13.167,8.832 6.585,-0.039 37.918,0.064 37.918,0.064 l 0.081,-13.064 c 0,0 3.143,13.531 22.31,13.98 l 0.406,1.245 C -2.232,-10.831 0.172,-2.757 0,0"
             style="fill:#ffffff;fill-opacity:1;fill-rule:nonzero;stroke:none"
             id="path3404"
             inkscape:connector-curvature="0" /></g></g></g><g
       id="g3406"
       transform="matrix(2.3997411,0,0,2.3997411,-659.6515,-555.04827)"><g
         id="g3408"><g
           id="g3414"><g
             id="g3416"><path
               d="m 377.091,472.269 c -5.029,-1.179 -10.608,-5.131 -17.91,-6.963 l 0,0 c 0,0 -10.758,-4.789 -15.089,-4.412 l 0,0 c -4.329,0.377 -3.97,2.746 -6.249,4.5 l 0,0 c -2.437,1.875 -8.09,-12.418 -8.385,-19.213 l 0,0 c -0.295,-6.795 0.308,-14.786 -0.966,-16.065 l 0,0 c -1.253,-1.256 -4.042,-2.588 -5.592,-3.269 l 0,0 c -4.721,-2.077 -18.667,-15.481 -18.667,-20.307 l 0,0 c 0,-1.722 8.495,-5.678 7.792,-9.131 l 0,0 c -0.238,-1.174 -2.256,-6.331 -2.831,-8.057 l 0,0 c 0,0 -3.407,-14.805 -2.901,-26.004 l 0,0 c 0.21,-4.655 8.18,-10.429 9.987,-10.893 l 0,0 c 0,0 3.694,-0.451 5.167,-1.332 l 0,0 c 1.471,-0.88 1.576,-3.755 2.798,-5.306 l 0,0 c 1.544,-1.961 2.339,-1.939 3.325,-1.916 l 0,0 c 0.579,0.013 1.224,0.026 2.127,-0.361 l 0,0 c 2.439,-1.048 6.655,-4.352 7.285,-9.424 l 0,0 c 0.631,-5.077 5.199,-7.19 7.047,-8.576 l 0,0 c 1.851,-1.383 6.106,-3.82 6.912,-4.428 l 0,0 c 3.242,-2.445 6.159,-8.446 6.159,-9.696 l 0,0 0,-7.833 16.081,-0.042 -0.069,-8.75 c 0,0 2.585,8.897 13.167,8.832 l 0,0 c 6.584,-0.039 37.918,0.065 37.918,0.065 l 0,0 0.081,-13.065 c 0,0 3.143,13.531 22.31,13.98 l 0,0 0.406,1.245 c 0.941,2.879 3.346,10.953 3.174,13.711 l 0,0 c -0.131,2.085 -3.36,8.437 -4.646,10.808 l 0,0 c -0.993,1.253 -3.456,3.273 -6.062,5.408 l 0,0 c -6.6,5.409 -11.283,9.487 -11.444,12.713 l 0,0 c -0.137,0.954 -3.593,4.459 -6.37,7.277 l 0,0 c -6.785,6.88 -11.534,12 -10.861,15.228 l 0,0 c 0.471,2.259 0.389,5.366 0.311,8.37 l 0,0 c -0.129,4.92 -0.262,10.008 1.874,12.785 l 0,0 c 4.921,6.396 8.458,11.965 11.577,16.879 l 0,0 c 4.854,7.642 8.688,13.68 15.17,18.957 l 0,0 0.346,0.283 0.441,-0.07 c 0.036,-0.006 0.064,-0.016 0.099,-0.022 l 0,0 c 0.228,0.277 0.278,0.686 -0.26,1.344 l 0,0 c -0.563,0.687 -1.571,0.812 -2.125,1.063 l 0,0 c -4.511,2.043 -23.986,5.589 -28.097,7.824 l 0,0 c -0.689,0.375 -2.584,0.765 -4.029,4.12 l 0,0 c 0,0 -7.145,8.566 -14.436,11.493 l 0,0 c -1.321,0.53 -2.23,3.187 -3.449,3.187 l 0,0 c 0,0 -3.834,1.754 -6.177,-1.749 l 0,0 c -1.345,-2.014 -1.477,0.063 -1.477,0.063 l 0,0 c 0,0 2.516,2.691 1.727,3.874 l 0,0 c -0.5,0.75 2.821,4.126 3.833,4.126 l 0,0 c 1.688,0 13.33,13.25 13.33,13.25 l 0,0 c 0,0 -8.226,-1.188 -22.352,-4.501"
               style="fill:url(#linearGradient3418);stroke:none"
               id="path3432"
               inkscape:connector-curvature="0" /></g></g></g></g><g
       id="g3434"
       transform="matrix(2.3997411,0,0,2.3997411,-659.6515,-555.04827)"><g
         id="g3436"
         clip-path="url(#clipPath3438)"><g
           id="g3442"
           transform="translate(447.5889,305.1704)"><path
             d="m 0,0 c 0,0 3.473,10.6 3.25,14.176 -0.178,2.808 -4.848,11.371 -4.848,11.371 -2.917,3.783 -17.265,12.994 -17.504,17.736 -0.153,3.059 -18.455,17.374 -17.405,22.4 1.262,6.039 -1.188,16.728 2.018,20.886 12.529,16.25 16.167,27.137 26.623,35.733 -0.159,0.181 0.55,0.301 0.881,0.703 -0.036,0.006 -0.064,0.016 -0.1,0.021 l -0.44,0.071 -0.347,-0.284 c -6.482,-5.277 -10.316,-11.314 -15.17,-18.957 -3.119,-4.914 -6.656,-10.482 -11.576,-16.878 -2.137,-2.778 -2.004,-7.866 -1.875,-12.786 0.078,-3.004 0.16,-6.111 -0.311,-8.37 -0.673,-3.227 4.076,-8.347 10.861,-15.228 2.777,-2.818 6.233,-6.323 6.37,-7.277 0.161,-3.225 4.844,-7.303 11.444,-12.713 C -5.523,28.47 -3.06,26.45 -2.067,25.196 -0.781,22.825 2.448,16.474 2.579,14.388 2.751,11.631 0.347,3.557 -0.595,0.678 l -0.406,-1.245 c 0.367,0.008 0.729,0.022 1.107,0.02 L 0,0 Z"
             style="fill:#231f20;fill-opacity:1;fill-rule:nonzero;stroke:none"
             id="path3444"
             inkscape:connector-curvature="0" /></g></g></g><g
       id="g3446"
       transform="matrix(2.3997411,0,0,2.3997411,-659.6515,-555.04827)"><g
         id="g3448"><g
           id="g3454"><g
             id="g3456"><path
               d="m 439.717,427.984 c -6.482,-5.277 -10.316,-11.315 -15.17,-18.957 l 0,0 c -3.119,-4.914 -6.656,-10.483 -11.577,-16.879 l 0,0 c -2.136,-2.777 -2.003,-7.865 -1.874,-12.785 l 0,0 c 0.078,-3.004 0.16,-6.111 -0.311,-8.37 l 0,0 c -0.673,-3.228 4.076,-8.348 10.861,-15.228 l 0,0 c 2.777,-2.818 6.233,-6.323 6.37,-7.277 l 0,0 c 0.161,-3.226 4.844,-7.304 11.444,-12.713 l 0,0 c 2.606,-2.135 5.069,-4.155 6.062,-5.408 l 0,0 c 1.286,-2.371 4.515,-8.723 4.646,-10.808 l 0,0 c 0.172,-2.758 -2.233,-10.832 -3.174,-13.711 l 0,0 -0.406,-1.245 c 0.367,0.008 0.728,0.022 1.107,0.02 l 0,0 -0.106,0.547 c 0,0 3.472,10.6 3.25,14.176 l 0,0 c -0.178,2.809 -4.848,11.372 -4.848,11.372 l 0,0 c -2.917,3.782 -17.265,12.994 -17.504,17.736 l 0,0 c -0.153,3.058 -18.455,17.373 -17.405,22.399 l 0,0 c 1.262,6.039 -1.189,16.728 2.018,20.886 l 0,0 c 12.529,16.251 16.167,27.137 26.623,35.733 l 0,0 c -0.159,0.182 0.55,0.301 0.88,0.703 l 0,0 c -0.035,0.006 -0.063,0.016 -0.099,0.022 l 0,0 -0.441,0.07 -0.346,-0.283 z"
               style="fill:url(#linearGradient3458);stroke:none"
               id="path3470"
               inkscape:connector-curvature="0" /></g></g></g></g><g
       id="g3472"
       transform="matrix(2.3997411,0,0,2.3997411,-659.6515,-555.04827)"><g
         id="g3474"
         clip-path="url(#clipPath3476)"><g
           id="g3480"
           transform="translate(378.9834,358.6401)"><path
             d="M 0,0 16.95,-11.571 2.527,2.852 C 2.99,3.74 3.284,4.73 3.371,5.779 c 0.02,0.206 0.029,0.407 0.03,0.602 0,0.015 0.003,0.031 0.003,0.047 0,0.003 -10e-4,0.006 -10e-4,0.008 0,0.245 -0.011,0.483 -0.035,0.71 -0.115,1.25 -0.528,2.41 -1.163,3.417 L 14.783,29.596 -0.542,13.189 c -1.131,0.643 -2.436,1.014 -3.83,1.014 -1.533,0 -2.958,-0.449 -4.162,-1.215 l -19.85,15.108 17.409,-17.576 c -0.738,-1.19 -1.172,-2.588 -1.172,-4.092 0,-1.727 0.569,-3.317 1.522,-4.608 l -13.259,-19.724 16.398,17.211 c 0.954,-0.418 2.006,-0.654 3.114,-0.654 1.622,0 3.126,0.497 4.372,1.347"
             style="fill:#ffffff;fill-opacity:1;fill-rule:nonzero;stroke:none"
             id="path3482"
             inkscape:connector-curvature="0" /></g><g
           id="g3484"
           transform="translate(332.1211,389.5503)"><path
             d="M 0,0 6.98,-4.763 1.041,1.174 C 1.23,1.54 1.352,1.947 1.387,2.381 1.396,2.465 1.399,2.547 1.4,2.627 c 0,0.007 0.001,0.014 0,0.019 0,0.002 0.001,0.002 0.001,0.004 C 1.4,2.751 1.396,2.849 1.386,2.943 1.339,3.457 1.168,3.935 0.907,4.35 L 6.084,12.188 -0.224,5.431 C -0.69,5.695 -1.228,5.848 -1.802,5.848 -2.433,5.848 -3.02,5.662 -3.516,5.347 L -11.69,11.564 -4.52,4.33 C -4.824,3.84 -5.003,3.264 -5.002,2.645 c 0,-0.711 0.234,-1.366 0.627,-1.897 l -5.458,-8.124 6.75,7.089 C -2.689,-0.459 -2.257,-0.556 -1.8,-0.556 -1.132,-0.555 -0.513,-0.35 0,0"
             style="fill:#ffffff;fill-opacity:1;fill-rule:nonzero;stroke:none"
             id="path3486"
             inkscape:connector-curvature="0" /></g><g
           id="g3488"
           transform="translate(359.6211,427.5503)"><path
             d="M 0,0 6.98,-4.763 1.041,1.174 C 1.23,1.54 1.352,1.947 1.387,2.381 1.396,2.465 1.399,2.547 1.4,2.627 c 0,0.007 0.001,0.014 0,0.019 0,0.002 0.001,0.002 0.001,0.004 C 1.4,2.751 1.396,2.849 1.386,2.943 1.339,3.457 1.168,3.935 0.907,4.35 L 6.084,12.188 -0.224,5.431 C -0.69,5.695 -1.228,5.848 -1.802,5.848 -2.433,5.848 -3.02,5.662 -3.516,5.347 L -11.69,11.564 -4.52,4.33 C -4.824,3.84 -5.003,3.264 -5.002,2.645 c 0,-0.711 0.234,-1.366 0.627,-1.897 l -5.458,-8.124 6.75,7.089 C -2.689,-0.459 -2.257,-0.556 -1.8,-0.556 -1.132,-0.555 -0.513,-0.35 0,0"
             style="fill:#ffffff;fill-opacity:1;fill-rule:nonzero;stroke:none"
             id="path3490"
             inkscape:connector-curvature="0" /></g><g
           id="g3492"
           transform="translate(454.7871,359.5503)"><path
             d="M 0,0 6.98,-4.763 1.041,1.174 C 1.23,1.54 1.353,1.947 1.388,2.381 1.396,2.465 1.4,2.547 1.4,2.627 c 0,0.007 0.001,0.014 0,0.019 0,0.002 0.001,0.002 0.001,0.004 C 1.4,2.751 1.396,2.849 1.387,2.943 1.34,3.457 1.168,3.935 0.907,4.35 l 5.177,7.838 -6.308,-6.757 c -0.465,0.264 -1.004,0.417 -1.577,0.417 -0.632,0 -1.219,-0.186 -1.715,-0.501 L -11.689,11.564 -4.52,4.33 C -4.824,3.84 -5.002,3.264 -5.002,2.645 c 0,-0.711 0.234,-1.366 0.627,-1.897 l -5.457,-8.124 6.75,7.089 C -2.689,-0.459 -2.256,-0.556 -1.8,-0.556 -1.132,-0.555 -0.512,-0.35 0,0"
             style="fill:#ffffff;fill-opacity:1;fill-rule:nonzero;stroke:none"
             id="path3494"
             inkscape:connector-curvature="0" /></g><g
           id="g3496"
           transform="translate(429.1738,371.0337)"><path
             d="m 0,0 5.547,-3.784 -4.72,4.717 c 0.152,0.291 0.247,0.615 0.276,0.959 0.006,0.066 0.009,0.132 0.01,0.197 l 0,0.015 0,0.002 C 1.113,2.187 1.109,2.265 1.102,2.339 1.064,2.747 0.928,3.127 0.721,3.456 L 4.835,9.686 -0.178,4.315 C -0.549,4.526 -0.976,4.647 -1.432,4.647 -1.934,4.647 -2.399,4.5 -2.793,4.249 L -9.29,9.19 -3.592,3.441 C -3.834,3.052 -3.976,2.595 -3.975,2.103 c 0,-0.566 0.186,-1.086 0.498,-1.508 l -4.336,-6.456 5.364,5.633 c 0.312,-0.136 0.656,-0.213 1.018,-0.213 C -0.899,-0.44 -0.407,-0.278 0,0"
             style="fill:#ffffff;fill-opacity:1;fill-rule:nonzero;stroke:none"
             id="path3498"
             inkscape:connector-curvature="0" /></g><g
           id="g3500"
           transform="translate(458.0078,310.8667)"><path
             d="M 0,0 5.547,-3.783 0.826,0.934 c 0.152,0.291 0.248,0.615 0.276,0.959 0.007,0.066 0.009,0.132 0.01,0.197 0,0.004 10e-4,0.01 10e-4,0.015 l 0,0.002 C 1.113,2.188 1.109,2.266 1.102,2.34 1.063,2.748 0.928,3.127 0.721,3.457 L 4.834,9.686 -0.178,4.316 C -0.549,4.527 -0.977,4.648 -1.432,4.648 -1.934,4.648 -2.4,4.5 -2.794,4.25 l -6.497,4.941 5.699,-5.75 C -3.834,3.053 -3.977,2.596 -3.976,2.104 c 0,-0.567 0.187,-1.086 0.499,-1.508 l -4.337,-6.457 5.364,5.634 c 0.312,-0.136 0.656,-0.214 1.018,-0.214 C -0.9,-0.439 -0.408,-0.277 0,0"
             style="fill:#ffffff;fill-opacity:1;fill-rule:nonzero;stroke:none"
             id="path3502"
             inkscape:connector-curvature="0" /></g><g
           id="g3504"
           transform="translate(442.2305,316.0171)"><path
             d="M 0,0 4.986,-3.402 0.744,0.838 C 0.879,1.1 0.967,1.391 0.991,1.7 0.998,1.76 1,1.819 1,1.877 1,1.881 1.001,1.885 1.001,1.891 l 0,0.002 C 1.001,1.965 0.998,2.035 0.99,2.102 0.957,2.469 0.834,2.811 0.648,3.106 L 4.346,8.705 -0.16,3.879 c -0.332,0.189 -0.717,0.298 -1.127,0.298 -0.451,0 -0.869,-0.132 -1.224,-0.359 l -5.84,4.444 5.122,-5.169 c -0.216,-0.35 -0.344,-0.761 -0.344,-1.204 0,-0.508 0.168,-0.975 0.448,-1.354 l -3.898,-5.805 4.822,5.065 c 0.28,-0.123 0.59,-0.191 0.916,-0.191 0.476,0 0.92,0.146 1.285,0.396"
             style="fill:#ffffff;fill-opacity:1;fill-rule:nonzero;stroke:none"
             id="path3506"
             inkscape:connector-curvature="0" /></g><g
           id="g3508"
           transform="translate(485.0293,307.4458)"><path
             d="M 0,0 4.987,-3.403 0.744,0.838 C 0.88,1.1 0.967,1.391 0.992,1.7 0.998,1.76 1,1.819 1.001,1.877 c 0,0.004 0.001,0.008 0.001,0.014 l 0,0.002 C 1.002,1.965 0.998,2.035 0.99,2.102 0.957,2.469 0.835,2.811 0.648,3.106 L 4.347,8.705 -0.159,3.879 c -0.333,0.189 -0.718,0.298 -1.127,0.298 -0.451,0 -0.87,-0.132 -1.224,-0.359 l -5.84,4.444 5.121,-5.169 c -0.216,-0.35 -0.343,-0.761 -0.343,-1.204 0,-0.508 0.168,-0.975 0.447,-1.354 l -3.898,-5.805 4.822,5.065 c 0.281,-0.123 0.59,-0.191 0.916,-0.191 0.477,0 0.92,0.146 1.285,0.396"
             style="fill:#ffffff;fill-opacity:1;fill-rule:nonzero;stroke:none"
             id="path3510"
             inkscape:connector-curvature="0" /></g><g
           id="g3512"
           transform="translate(374.4185,406.2007)"><path
             d="M 0,0 9.347,-6.463 1.394,1.594 c 0.255,0.497 0.417,1.05 0.465,1.636 0.011,0.114 0.016,0.225 0.017,0.335 0,0.009 0.001,0.018 0.001,0.027 l 0,0.004 c 0,0.136 -0.006,0.27 -0.02,0.397 C 1.794,4.691 1.566,5.34 1.216,5.902 L 14.182,23.756 -0.298,7.369 c -0.624,0.36 -1.344,0.567 -2.113,0.567 -0.845,0 -1.631,-0.25 -2.295,-0.679 l -10.946,8.44 9.6,-9.819 C -6.459,5.213 -6.699,4.432 -6.699,3.592 c 0,-0.965 0.315,-1.854 0.84,-2.574 l -12.792,-18.151 14.523,16.746 c 0.526,-0.233 1.106,-0.365 1.717,-0.365 0.894,0 1.724,0.278 2.411,0.752"
             style="fill:#ffffff;fill-opacity:1;fill-rule:nonzero;stroke:none"
             id="path3514"
             inkscape:connector-curvature="0" /></g><g
           id="g3516"
           transform="translate(400.6943,415.1313)"><path
             d="M 0,0 7.307,-5.054 1.089,1.245 c 0.2,0.389 0.326,0.82 0.364,1.279 0.009,0.09 0.013,0.176 0.013,0.262 0,0.008 0.002,0.014 0.002,0.022 l 0,0.003 c 0,0.106 -0.006,0.211 -0.016,0.31 C 1.402,3.667 1.224,4.173 0.95,4.613 L 11.087,18.569 -0.233,5.761 c -0.489,0.279 -1.051,0.442 -1.653,0.442 -0.66,0 -1.274,-0.196 -1.793,-0.53 l -8.557,6.598 7.505,-7.676 c -0.318,-0.52 -0.506,-1.131 -0.506,-1.787 0,-0.754 0.246,-1.45 0.657,-2.012 l -10.001,-14.19 11.353,13.091 c 0.413,-0.182 0.866,-0.286 1.342,-0.286 0.699,0 1.35,0.219 1.886,0.589"
             style="fill:#ffffff;fill-opacity:1;fill-rule:nonzero;stroke:none"
             id="path3518"
             inkscape:connector-curvature="0" /></g><g
           id="g3520"
           transform="translate(406.2334,403.5337)"><path
             d="M 0,0 5.548,-3.784 0.827,0.933 c 0.151,0.291 0.248,0.615 0.276,0.959 0.006,0.066 0.009,0.132 0.009,0.197 0,0.004 10e-4,0.01 10e-4,0.015 l 0,0.002 C 1.113,2.187 1.109,2.265 1.102,2.339 1.063,2.747 0.929,3.127 0.721,3.456 l 4.114,6.23 -5.013,-5.371 c -0.37,0.211 -0.798,0.332 -1.254,0.332 -0.502,0 -0.967,-0.147 -1.362,-0.398 L -9.29,9.19 -3.592,3.441 C -3.833,3.052 -3.976,2.595 -3.976,2.103 c 0,-0.566 0.188,-1.086 0.499,-1.508 l -4.336,-6.456 5.363,5.633 c 0.312,-0.136 0.656,-0.213 1.019,-0.213 C -0.899,-0.44 -0.407,-0.278 0,0"
             style="fill:#ffffff;fill-opacity:1;fill-rule:nonzero;stroke:none"
             id="path3522"
             inkscape:connector-curvature="0" /></g><g
           id="g3524"
           transform="translate(396.5664,384.8667)"><path
             d="m 0,0 5.547,-3.785 -4.72,4.719 c 0.152,0.291 0.247,0.615 0.276,0.959 0.006,0.066 0.009,0.131 0.01,0.195 l 0,0.016 0,10e-4 C 1.113,2.187 1.109,2.264 1.102,2.339 1.064,2.748 0.928,3.127 0.721,3.457 l 4.114,6.229 -5.013,-5.37 c -0.37,0.209 -0.798,0.331 -1.254,0.33 -0.502,0 -0.967,-0.146 -1.361,-0.397 L -9.29,9.191 -3.592,3.441 C -3.833,3.053 -3.976,2.594 -3.975,2.102 c 0,-0.565 0.186,-1.084 0.498,-1.507 l -4.336,-6.456 5.363,5.633 c 0.313,-0.136 0.657,-0.213 1.019,-0.213 0.532,0 1.024,0.164 1.431,0.441"
             style="fill:#ffffff;fill-opacity:1;fill-rule:nonzero;stroke:none"
             id="path3526"
             inkscape:connector-curvature="0" /></g><g
           id="g3528"
           transform="translate(383.0532,382.271)"><path
             d="m 0,0 5.547,-3.785 -4.72,4.718 c 0.151,0.291 0.248,0.615 0.276,0.959 0.006,0.066 0.009,0.131 0.01,0.196 0,0.005 0,0.01 0,0.016 l 0,10e-4 C 1.113,2.186 1.109,2.264 1.102,2.338 1.064,2.747 0.928,3.127 0.721,3.456 l 4.114,6.23 -5.013,-5.371 c -0.37,0.21 -0.798,0.331 -1.254,0.331 -0.502,0 -0.967,-0.146 -1.361,-0.398 L -9.29,9.19 -3.592,3.441 C -3.833,3.052 -3.976,2.594 -3.975,2.102 c 0,-0.565 0.186,-1.085 0.498,-1.508 l -4.336,-6.455 5.363,5.632 c 0.313,-0.136 0.657,-0.212 1.019,-0.212 0.532,0 1.024,0.163 1.431,0.441"
             style="fill:#ffffff;fill-opacity:1;fill-rule:nonzero;stroke:none"
             id="path3530"
             inkscape:connector-curvature="0" /></g><g
           id="g3532"
           transform="translate(389.0234,366.4644)"><path
             d="M 0,0 7.307,-5.053 1.089,1.245 c 0.2,0.389 0.326,0.821 0.364,1.279 0.009,0.089 0.012,0.177 0.013,0.263 0,0.007 0.001,0.014 0.001,0.02 l 0,0.004 c 0,0.107 -0.005,0.21 -0.015,0.31 C 1.402,3.667 1.224,4.174 0.951,4.613 L 11.086,18.57 -0.233,5.761 c -0.488,0.28 -1.051,0.442 -1.652,0.442 -0.66,0 -1.275,-0.195 -1.794,-0.531 l -8.557,6.598 7.505,-7.676 c -0.318,-0.52 -0.506,-1.129 -0.506,-1.787 0,-0.754 0.246,-1.448 0.657,-2.012 l -10.001,-14.189 11.354,13.091 c 0.411,-0.182 0.864,-0.285 1.342,-0.285 0.699,0 1.348,0.217 1.885,0.588"
             style="fill:#ffffff;fill-opacity:1;fill-rule:nonzero;stroke:none"
             id="path3534"
             inkscape:connector-curvature="0" /></g><g
           id="g3536"
           transform="translate(406.1094,368.7749)"><path
             d="M 0,0 7.307,-5.054 1.09,1.244 C 1.289,1.633 1.415,2.065 1.453,2.523 1.462,2.613 1.465,2.7 1.467,2.786 l 0,0.021 0,0.004 c 0,0.106 -0.004,0.21 -0.016,0.31 -0.049,0.545 -0.226,1.052 -0.5,1.492 L 11.086,18.569 -0.233,5.76 c -0.488,0.28 -1.05,0.443 -1.652,0.443 -0.66,0 -1.275,-0.196 -1.795,-0.531 l -8.556,6.598 7.505,-7.676 c -0.318,-0.52 -0.505,-1.13 -0.505,-1.787 0,-0.754 0.246,-1.449 0.656,-2.012 l -10.001,-14.19 11.354,13.092 c 0.411,-0.183 0.864,-0.286 1.342,-0.286 0.699,0 1.348,0.218 1.885,0.589"
             style="fill:#ffffff;fill-opacity:1;fill-rule:nonzero;stroke:none"
             id="path3538"
             inkscape:connector-curvature="0" /></g><g
           id="g3540"
           transform="translate(410.1367,357.7651)"><path
             d="m 0,0 6.535,-4.52 -5.56,5.633 c 0.177,0.348 0.291,0.735 0.326,1.145 0.007,0.08 0.01,0.158 0.011,0.234 l 0,0.018 0,0.004 C 1.312,2.609 1.309,2.702 1.299,2.791 1.254,3.279 1.096,3.732 0.851,4.125 L 9.915,16.607 -0.209,5.152 c -0.436,0.25 -0.938,0.395 -1.477,0.395 -0.59,0 -1.14,-0.175 -1.604,-0.475 l -7.653,5.901 6.713,-6.864 C -4.516,3.645 -4.684,3.098 -4.684,2.51 c 0,-0.674 0.221,-1.295 0.588,-1.799 l -8.943,-12.69 10.153,11.708 c 0.368,-0.164 0.773,-0.255 1.2,-0.255 0.625,0 1.207,0.194 1.686,0.526"
             style="fill:#ffffff;fill-opacity:1;fill-rule:nonzero;stroke:none"
             id="path3542"
             inkscape:connector-curvature="0" /></g><g
           id="g3544"
           transform="translate(403.6758,352.4448)"><path
             d="m 0,0 6.535,-4.52 -5.56,5.633 c 0.177,0.348 0.291,0.735 0.326,1.145 0.007,0.08 0.01,0.158 0.011,0.234 l 0,0.018 0,0.004 C 1.312,2.609 1.309,2.702 1.299,2.791 1.254,3.279 1.096,3.732 0.851,4.125 L 9.915,16.607 -0.209,5.152 c -0.436,0.25 -0.938,0.395 -1.477,0.395 -0.59,0 -1.14,-0.175 -1.604,-0.475 l -7.653,5.901 6.713,-6.864 C -4.516,3.645 -4.684,3.098 -4.684,2.51 c 0,-0.674 0.221,-1.295 0.588,-1.799 l -8.944,-12.69 10.154,11.708 c 0.368,-0.164 0.773,-0.255 1.2,-0.255 0.625,0 1.207,0.194 1.686,0.526"
             style="fill:#ffffff;fill-opacity:1;fill-rule:nonzero;stroke:none"
             id="path3546"
             inkscape:connector-curvature="0" /></g><g
           id="g3548"
           transform="translate(400.0244,332.9829)"><path
             d="M 0,0 4.507,-3.116 0.672,0.768 c 0.123,0.24 0.201,0.506 0.224,0.789 0.005,0.055 0.007,0.109 0.009,0.161 l 0,0.013 0,0.002 C 0.905,1.8 0.901,1.863 0.896,1.925 0.864,2.262 0.755,2.573 0.587,2.845 l 6.25,8.607 -6.981,-7.899 c -0.3,0.173 -0.648,0.272 -1.019,0.272 -0.406,0 -0.785,-0.121 -1.106,-0.327 l -5.277,4.069 4.629,-4.734 c -0.197,-0.32 -0.312,-0.696 -0.312,-1.102 0,-0.464 0.151,-0.892 0.404,-1.241 l -6.167,-8.751 7.002,8.074 c 0.254,-0.113 0.533,-0.175 0.827,-0.175 0.432,0 0.832,0.133 1.163,0.362"
             style="fill:#ffffff;fill-opacity:1;fill-rule:nonzero;stroke:none"
             id="path3550"
             inkscape:connector-curvature="0" /></g><g
           id="g3552"
           transform="translate(418.2793,337.7104)"><path
             d="M 0,0 8.101,-5.377 1.207,1.326 c 0.222,0.414 0.361,0.873 0.404,1.362 0.01,0.095 0.014,0.189 0.014,0.279 0,0.008 0.002,0.013 0.002,0.021 l 0,0.004 c 0,0.113 -0.006,0.225 -0.018,0.33 C 1.555,3.904 1.357,4.443 1.055,4.91 L 12.291,19.766 -0.259,6.133 C -0.8,6.432 -1.424,6.604 -2.091,6.604 -2.822,6.604 -3.504,6.395 -4.08,6.038 l -9.486,7.023 8.32,-8.17 C -5.598,4.338 -5.807,3.688 -5.807,2.988 c 0,-0.802 0.274,-1.541 0.729,-2.14 l -11.088,-15.102 12.588,13.933 c 0.455,-0.195 0.959,-0.304 1.487,-0.304 0.777,0 1.495,0.232 2.091,0.625"
             style="fill:#ffffff;fill-opacity:1;fill-rule:nonzero;stroke:none"
             id="path3554"
             inkscape:connector-curvature="0" /></g><g
           id="g3556"
           transform="translate(432.1328,318.2378)"><path
             d="m 0,0 6.535,-4.518 -5.56,5.632 c 0.177,0.348 0.291,0.734 0.326,1.144 0.007,0.08 0.01,0.158 0.011,0.234 l 0,0.02 0,0.002 C 1.312,2.609 1.309,2.703 1.299,2.792 1.254,3.28 1.096,3.732 0.851,4.127 L 9.915,16.608 -0.209,5.152 c -0.436,0.251 -0.938,0.397 -1.477,0.397 -0.59,0 -1.14,-0.176 -1.604,-0.475 l -7.653,5.901 6.713,-6.866 C -4.516,3.645 -4.684,3.1 -4.684,2.512 c 0,-0.675 0.221,-1.295 0.588,-1.8 l -8.943,-12.689 10.153,11.707 c 0.368,-0.164 0.773,-0.255 1.2,-0.255 0.625,0 1.207,0.195 1.686,0.525"
             style="fill:#ffffff;fill-opacity:1;fill-rule:nonzero;stroke:none"
             id="path3558"
             inkscape:connector-curvature="0" /></g><g
           id="g3560"
           transform="translate(395.4761,308.0054)"><path
             d="M 0,0 3.268,-2.26 0.487,0.557 C 0.577,0.73 0.633,0.924 0.65,1.129 0.654,1.17 0.656,1.209 0.656,1.246 l 0,0.01 0,0.002 C 0.656,1.305 0.654,1.352 0.649,1.396 0.627,1.641 0.548,1.867 0.426,2.064 L 4.958,8.305 -0.104,2.576 c -0.218,0.125 -0.469,0.199 -0.739,0.199 -0.295,0 -0.57,-0.087 -0.802,-0.238 L -5.471,5.488 -2.115,2.055 C -2.258,1.822 -2.341,1.551 -2.341,1.256 c 0,-0.338 0.11,-0.647 0.293,-0.901 l -4.472,-6.343 5.078,5.853 c 0.183,-0.082 0.386,-0.127 0.599,-0.127 0.313,0 0.604,0.098 0.843,0.262"
             style="fill:#ffffff;fill-opacity:1;fill-rule:nonzero;stroke:none"
             id="path3562"
             inkscape:connector-curvature="0" /></g><g
           id="g3564"
           transform="translate(348.1655,368.4546)"><path
             d="m 0,0 c 0,-1.812 -1.47,-3.282 -3.283,-3.282 -1.813,0 -3.282,1.47 -3.282,3.282 0,1.813 1.469,3.283 3.282,3.283 C -1.47,3.283 0,1.813 0,0"
             style="fill:#ffffff;fill-opacity:1;fill-rule:nonzero;stroke:none"
             id="path3566"
             inkscape:connector-curvature="0" /></g><g
           id="g3568"
           transform="translate(365.3071,411.3657)"><path
             d="m 0,0 c 0,-1.023 -0.83,-1.854 -1.854,-1.854 -1.023,0 -1.853,0.831 -1.853,1.854 0,1.023 0.83,1.854 1.853,1.854 C -0.83,1.854 0,1.023 0,0"
             style="fill:#ffffff;fill-opacity:1;fill-rule:nonzero;stroke:none"
             id="path3570"
             inkscape:connector-curvature="0" /></g><g
           id="g3572"
           transform="translate(370.791,391.8101)"><path
             d="m 0,0 c 0,-1.514 -1.228,-2.742 -2.742,-2.742 -1.514,0 -2.742,1.228 -2.742,2.742 0,1.515 1.228,2.742 2.742,2.742 C -1.228,2.742 0,1.515 0,0"
             style="fill:#ffffff;fill-opacity:1;fill-rule:nonzero;stroke:none"
             id="path3574"
             inkscape:connector-curvature="0" /></g><g
           id="g3576"
           transform="translate(382.4893,337.7905)"><path
             d="m 0,0 c 0,-1.626 -1.318,-2.944 -2.945,-2.944 -1.626,0 -2.944,1.318 -2.944,2.944 0,1.627 1.318,2.945 2.944,2.945 C -1.318,2.945 0,1.627 0,0"
             style="fill:#ffffff;fill-opacity:1;fill-rule:nonzero;stroke:none"
             id="path3578"
             inkscape:connector-curvature="0" /></g><g
           id="g3580"
           transform="translate(456.1367,332.9946)"><path
             d="m 0,0 c 0,-1.022 -0.83,-1.853 -1.853,-1.853 -1.022,0 -1.851,0.831 -1.851,1.853 0,1.022 0.829,1.852 1.851,1.852 C -0.83,1.852 0,1.022 0,0"
             style="fill:#ffffff;fill-opacity:1;fill-rule:nonzero;stroke:none"
             id="path3582"
             inkscape:connector-curvature="0" /></g><g
           id="g3584"
           transform="translate(408.7324,392.6401)"><path
             d="m 0,0 5.548,-3.785 -4.72,4.719 c 0.151,0.291 0.247,0.615 0.276,0.959 0.005,0.066 0.009,0.131 0.009,0.195 l 0,0.016 0,10e-4 C 1.113,2.187 1.109,2.264 1.102,2.339 1.064,2.748 0.929,3.127 0.721,3.457 l 4.115,6.229 -5.014,-5.37 c -0.37,0.209 -0.797,0.331 -1.254,0.33 -0.502,0 -0.966,-0.146 -1.361,-0.397 l -6.496,4.942 5.697,-5.75 C -3.833,3.053 -3.975,2.594 -3.975,2.102 c 0,-0.565 0.187,-1.084 0.498,-1.507 l -4.335,-6.456 5.363,5.633 c 0.312,-0.136 0.656,-0.213 1.019,-0.213 0.532,0 1.024,0.164 1.43,0.441"
             style="fill:#ffffff;fill-opacity:1;fill-rule:nonzero;stroke:none"
             id="path3586"
             inkscape:connector-curvature="0" /></g></g></g></g></svg>